<svg width="128" height="128" viewBox="0 0 128 128" fill="none" xmlns="http://www.w3.org/2000/svg">
<rect width="128" height="128" fill="#FF6A6A"/>
<path fill-rule="evenodd" clip-rule="evenodd" d="M116 64C116 92.7188 92.7188 116 64 116C35.2812 116 12 92.7188 12 64C12 35.2812 35.2812 12 64 12C92.7188 12 116 35.2812 116 64ZM104.983 63.9992C104.983 86.6335 86.6342 104.982 63.9999 104.982C41.3656 104.982 23.0169 86.6335 23.0169 63.9992C23.0169 41.3649 41.3656 23.0161 63.9999 23.0161C86.6342 23.0161 104.983 41.3649 104.983 63.9992ZM68.1939 40.0482H45.162V88.9439H56.3633V67.9886H68.1939C84.933 67.9886 92.4844 63.3318 92.4844 54.0184C92.4844 44.7049 84.933 40.0482 68.1939 40.0482ZM68.8232 61.1293H56.3633V46.9074H68.8232C75.9971 46.9074 80.8426 48.9841 80.8426 54.0184C80.8426 59.0527 75.9971 61.1293 68.8232 61.1293Z" fill="#BD2D00"/>
</svg>
