<svg width="500" height="500" viewBox="0 0 500 500" fill="none" xmlns="http://www.w3.org/2000/svg">
<path fill-rule="evenodd" clip-rule="evenodd" d="M446.667 250C446.667 358.616 358.616 446.667 250 446.667C141.384 446.667 53.3333 358.616 53.3333 250C53.3333 141.384 141.384 53.3333 250 53.3333C358.616 53.3333 446.667 141.384 446.667 250ZM405 250C405 335.604 335.604 405 250 405C164.396 405 95 335.604 95 250C95 164.396 164.396 94.9999 250 94.9999C335.604 94.9999 405 164.396 405 250ZM291.432 260.821C313.685 251.179 339.64 239.933 339.64 209.917C339.64 181.043 307.217 156.667 255.15 156.667C166.163 156.667 161.667 210.863 161.667 210.863L204.977 222.697C204.977 222.697 204.03 185.777 256.57 185.777C280.947 185.777 296.093 196.427 296.093 212.52C296.093 230.33 278.377 239.496 261.354 248.303C242.636 257.988 224.756 267.238 232.193 287.07H260.12C260.12 274.388 274.734 268.056 291.432 260.821ZM225.093 308.37V343.87H267.22V308.37H225.093Z" fill="#505050"/>
</svg>
